<?xml version="1.0" ?><!DOCTYPE svg  PUBLIC '-//W3C//DTD SVG 20010904//EN'  'http://www.w3.org/TR/2001/REC-SVG-20010904/DTD/svg10.dtd'><svg height="512.000000pt" preserveAspectRatio="xMidYMid meet" version="1.0" viewBox="0 0 512.000000 512.000000" width="512.000000pt" xmlns="http://www.w3.org/2000/svg"><g fill="#000000" stroke="none" transform="translate(0.000000,512.000000) scale(0.100000,-0.100000)"><path d="M2285 4898 c-311 -35 -683 -165 -955 -333 -220 -137 -472 -361 -622 -555 -256 -331 -417 -712 -480 -1135 -20 -136 -17 -512 5 -655 103 -665 471 -1245 1027 -1616 287 -191 623 -320 966 -371 164 -24 504 -24 668 0 411 61 815 237 1136 494 459 368 764 897 857 1485 25 159 25 537 0 696 -83 524 -329 995 -708 1356 -370 352 -861 581 -1361 635 -114 13 -419 12 -533 -1z m734 -789 c219 -125 253 -151 249 -189 -3 -21 -9 -26 -43 -30 -35 -5 -42 -10 -71 -60 -17 -30 -50 -88 -73 -128 l-42 -73 31 -29 c38 -35 38 -61 0 -125 -35 -59 -36 -65 -11 -65 50 0 135 -55 180 -117 21 -29 46 -46 97 -68 164 -69 348 -218 440 -356 51 -78 104 -195 125 -279 17 -71 18 -306 0 -385 -81 -367 -421 -706 -786 -785 -61 -13 -142 -23 -210 -24 l-110 -2 0 -33 c0 -33 1 -34 75 -56 94 -28 197 -80 275 -139 59 -45 61 -46 137 -46 91 0 89 3 86 -128 l-3 -92 -767 0 -767 0 2 113 2 112 76 -3 76 -4 69 52 c86 65 167 106 264 135 l75 22 3 90 3 90 -76 45 c-87 51 -192 140 -255 215 l-44 53 -410 2 -411 3 0 80 0 80 135 5 c74 3 126 7 115 8 -11 2 -31 10 -45 18 -17 10 -19 13 -5 9 57 -19 82 -24 154 -30 68 -5 150 2 241 20 14 2 7 -2 -15 -9 -36 -13 -1 -15 329 -15 l368 -1 -16 28 -17 27 25 -27 c24 -27 28 -28 130 -28 57 0 111 -3 120 -6 11 -4 16 -19 16 -44 0 -45 6 -48 125 -56 232 -18 458 132 576 381 78 166 79 331 2 477 -32 62 -128 167 -176 193 l-35 18 -40 -31 c-60 -48 -108 -64 -187 -64 -85 0 -129 16 -189 72 l-45 41 -14 -23 c-32 -50 -291 -485 -310 -521 -27 -49 -61 -71 -98 -63 -21 4 -35 0 -49 -14 -11 -11 -28 -20 -37 -20 -21 0 -316 167 -350 198 -20 19 -24 29 -19 54 4 22 0 37 -14 55 -27 34 -25 53 9 115 31 57 114 207 286 518 60 107 155 280 212 385 57 104 111 197 120 207 18 20 82 25 100 7 8 -8 15 -5 25 12 8 13 29 49 48 79 18 30 40 69 48 85 8 17 23 42 33 56 17 24 17 28 4 39 -18 15 -20 51 -3 68 25 25 66 9 257 -99z"/></g></svg>