<svg id="Calque_1" data-name="Calque 1" xmlns="http://www.w3.org/2000/svg" viewBox="0 0 200 200"><defs><style>.cls-1{fill:#6fc7d9;}</style></defs><title>1</title><path class="cls-1" d="M119.3,107.64c-.09.42-.16.85-.28,1.27a8.89,8.89,0,0,1-7,6.76A9.09,9.09,0,0,1,101.2,109a11.5,11.5,0,0,1-.31-2.8,33.85,33.85,0,0,1,1.42-9.89A24.22,24.22,0,0,1,106,88.66a17.73,17.73,0,0,1,4-4c1-.68,1.92-1.34,2.89-2a2.63,2.63,0,0,1,.55-.22l.08.09a5,5,0,0,1-.26.68c-.87,1.6-1.78,3.18-2.61,4.8a35.26,35.26,0,0,0-3.45,9.76v.12c.55-.12,1.08-.25,1.62-.34a9.22,9.22,0,0,1,9.5,4.86,9.38,9.38,0,0,1,1,3.11,1.72,1.72,0,0,0,.07.21Z"/><path class="cls-1" d="M93.22,82.56c-.09.23-.16.47-.27.69-.89,1.63-1.82,3.24-2.67,4.89a35.71,35.71,0,0,0-3.38,9.63v.14c.56-.12,1.1-.27,1.64-.34a9,9,0,0,1,7.24,2.07,8.73,8.73,0,0,1,3,5,8.93,8.93,0,0,1-2.6,8.66A8.65,8.65,0,0,1,89,115.84a9,9,0,0,1-7.73-5.73,11.9,11.9,0,0,1-.64-5.42,34.47,34.47,0,0,1,1.86-9.84,20.44,20.44,0,0,1,7.8-10.63l2.27-1.55a3.11,3.11,0,0,1,.53-.22Z"/></svg>