<svg id="Calque_1" data-name="Calque 1" xmlns="http://www.w3.org/2000/svg" viewBox="0 0 200 200"><defs><style>.cls-1{fill:#70c7da;}</style></defs><path class="cls-1" d="M167.34,99.88a3.73,3.73,0,0,1-3.69,1.59c-1.15-.11-2.32,0-3.62,0v30.21c0,2.34-.88,3.2-3.24,3.2H132.91c-2.26,0-3.16-.89-3.16-3.14V101.45c-1.56,0-3,0-4.49,0-2.39,0-3.62-2.12-2.35-4.14q9.79-15.54,19.66-31c1.28-2,3.47-1.86,4.83.28Q156.58,81,165.74,95.49c.5.79,1.07,1.54,1.6,2.3ZM135,129.55h19.84v-1.12q0-14.61,0-29.22c0-2,.94-3,2.93-3,.66,0,1.32,0,2.2,0L144.89,72.45,129.83,96.23h1.82c2.51,0,3.32.82,3.32,3.37v30Z"/><path class="cls-1" d="M101.29,33.05a14.13,14.13,0,0,1,1.89,1.9c4.44,6.5,8.81,13,13.23,19.54.7,1,1.14,2.06.52,3.26a2.79,2.79,0,0,1-3,1.42c-.78-.05-1.56,0-2.49,0V78c0,2.18-.92,3.1-3.08,3.1q-7.89,0-15.78,0c-2.16,0-3.07-.92-3.07-3.1V59.16c-1.05,0-2,0-3,0A2.58,2.58,0,0,1,84.26,55q7-10.45,14.08-20.84a6.25,6.25,0,0,1,1.38-1.15ZM94.76,75.79h11.49V74.3c0-5.83,0-11.65,0-17.47A2.57,2.57,0,0,1,109,53.94c.15,0,.29,0,.58-.1L100.5,40.39,91.42,53.87c2.61.19,3.34,1,3.34,3.4Z"/><path class="cls-1" d="M41.08,110.33c2.4,0,4.53,0,6.65,0,2.27,0,3.16.89,3.16,3.14q0,23.16,0,46.33v1.62H84.32v-1.21c0-3.22,0-6.44,0-9.65,0-1.81,1-2.91,2.62-2.9s2.59,1.11,2.59,2.92q0,6.6,0,13.19c0,2-1,2.94-3,2.94H48.7c-2.08,0-3-.94-3-3V115.54c-3,0-5.83,0-8.69,0-1.24,0-2.36-.15-3-1.36s-.24-2.22.44-3.28q15.35-24,30.65-48c1.48-2.3,3.58-2.32,5.06,0Q85.49,87,100.86,111a2.92,2.92,0,0,1,.38,3.17,2.83,2.83,0,0,1-2.88,1.37c-2.87,0-5.74,0-8.82,0v1.28q0,4.83,0,9.66c0,1.8-1,2.9-2.62,2.9s-2.59-1.12-2.59-2.93q0-6.58,0-13.18c0-2,1-2.93,3-2.94,2.18,0,4.35,0,6.85,0L67.61,68.77Z"/><path class="cls-1" d="M87,135.91a2.61,2.61,0,1,1-2.63,2.62A2.56,2.56,0,0,1,87,135.91Z"/></svg>