<svg id="Calque_1" data-name="Calque 1" xmlns="http://www.w3.org/2000/svg" viewBox="0 0 200 200"><defs><style>.cls-1{fill:#70c7da;}</style></defs><path class="cls-1" d="M117.91,29.11a59.55,59.55,0,0,1,6.66,2.58,17.32,17.32,0,0,1,7.37,7.79,3.17,3.17,0,0,0,2,1.77,15.62,15.62,0,0,1,10.7,14.83,3,3,0,0,0,1.73,3.06c7.19,4.3,10.64,14.11,7.83,22a1.52,1.52,0,0,0,.43,1.9c5.69,5.52,7.07,12.15,4.78,19.61-.43,1.4-1.25,2.69-1.76,4.07a2.35,2.35,0,0,0,0,1.75,18.21,18.21,0,0,1-2.12,22.21,2,2,0,0,0-.42,1.38,19.28,19.28,0,0,1-14.38,20.63,9.33,9.33,0,0,1-2.71.41,2.39,2.39,0,0,0-2.29,1.3c-5,7-11.87,10.2-20.46,9-6.13-.88-10.79-4.31-14.23-9.41-.32-.46-.6-.95-1-1.61l-.92,1.38c-4.4,6.53-10.44,10.17-18.42,9.88a20.15,20.15,0,0,1-16.34-9.09,3,3,0,0,0-2.48-1.44c-6.93-.68-11.83-4.4-15-10.47a18.6,18.6,0,0,1-2-10.68,2,2,0,0,0-.49-1.35c-5.17-5.83-6.41-13.48-2.92-20.35a5.07,5.07,0,0,0,.1-5.17c-3.12-6.73-2.88-13.4,1.6-19.6A18.73,18.73,0,0,1,45.48,83a1.26,1.26,0,0,0,.42-1.56,19.14,19.14,0,0,1,8.41-22.7c.69-.42,1.12-.79,1.06-1.72A15.89,15.89,0,0,1,66.68,41a1.91,1.91,0,0,0,1-.84c3-5.89,7.63-9.69,14.23-10.9.08,0,.14-.1.21-.15h4.47a7,7,0,0,0,.84.29A17.91,17.91,0,0,1,97,34.59C98.07,35.73,99,37,100,38.28c.07,0,.17-.05.22-.11.16-.21.3-.43.44-.65a18.2,18.2,0,0,1,7.83-6.76,48.14,48.14,0,0,1,4.92-1.65Zm8.43,11.5c-2.35-4-7.38-6.65-11.43-6.18a14,14,0,0,0-12,11.81,32.45,32.45,0,0,0-.24,4.18c0,6.08,0,12.16,0,18.07,1.74-.34,3.42-.8,5.12-1a2.5,2.5,0,0,1,2.75,2.4,2.62,2.62,0,0,1-2.5,2.81c-3.71.48-5.37,2.38-5.37,6.15q0,23.79,0,47.57v1.38l1.13-1.07a20.79,20.79,0,0,1,14-5.91c2-.06,3.14.9,3.21,2.49s-1,2.62-3,2.77a20.07,20.07,0,0,0-3,.4A15.81,15.81,0,0,0,104,148.3c3.43,8.22,12.1,12.09,20.17,8.95a15.45,15.45,0,0,0,8.26-7.51c1-1.86,1.73-2.16,3.84-1.93a7.15,7.15,0,0,0,2,0A13.83,13.83,0,0,0,149.68,132a4.48,4.48,0,0,1,1.54-4.5c4.43-4.16,5.27-11.21,2-15.86-.36.23-.73.46-1.08.71a16.82,16.82,0,0,1-9.78,3.27,2.62,2.62,0,0,1-2.88-2.58,2.66,2.66,0,0,1,2.66-2.68,15.83,15.83,0,0,0,2.84-.43A13.46,13.46,0,0,0,154.91,99c1.09-5.42-.84-9.89-5.29-13.22-1.88-1.4-2.2-2.36-1.22-4.34,2.73-5.55,1.8-10.67-2-15.25-3.28-3.93-7.55-5.57-12.67-4.19-5.53,1.5-9.55,6.84-10,13.12C123.57,76.94,122.59,78,121,78s-2.59-1.21-2.58-3.13a19.56,19.56,0,0,1,11.77-17.37,18.36,18.36,0,0,1,9.23-1.15c-.08-.74-.14-1.33-.21-1.92-.6-5.11-6.14-9.31-11.23-8.63a11.72,11.72,0,0,0-6.24,2.77c-1.57,1.32-3.12,1.26-4.15,0s-.68-2.72.74-4A16,16,0,0,1,126.34,40.61ZM97.4,68.51v-1c0-6.22.06-12.44,0-18.66-.06-5.86-2.62-10.36-7.82-13.16-6.45-3.47-13.33.42-15.76,4.87.42.12.83.24,1.25.34a15.23,15.23,0,0,1,7.12,4,2.7,2.7,0,0,1,.22,3.68,2.63,2.63,0,0,1-3.55.37c-.43-.29-.82-.64-1.24-1a10,10,0,0,0-10.85-1.29c-4,1.81-5.88,5.11-6.11,9.49.5,0,.93,0,1.35,0C72.63,55.44,81.51,64.69,81.62,75c0,1.82-1,3-2.55,3s-2.59-1-2.71-2.89a14.35,14.35,0,0,0-3.58-8.95c-3.38-3.74-7.47-5.52-12.58-4.25C53,63.69,47.43,73.3,51.53,81.12c1.17,2.23.82,3.1-1.15,4.69a16.14,16.14,0,0,0-3.19,3.26c-5.88,8.57.07,20.47,10.57,21.25,1.82.14,2.9,1.19,2.83,2.77a2.52,2.52,0,0,1-3,2.45,31.93,31.93,0,0,1-6.34-1.41,30.41,30.41,0,0,1-4.55-2.45,3.08,3.08,0,0,0-.24.34A12.71,12.71,0,0,0,49,127.62a4.2,4.2,0,0,1,1.46,4,16.56,16.56,0,0,0,.27,6.08c1.66,6.39,8.13,11.09,13.85,10a2.47,2.47,0,0,1,2.66,1.31c.34.56.64,1.14,1,1.7,3.2,5.07,7.86,7.76,13.81,7.61,9.77-.25,17.23-10.28,15-19.8-1.74-7.33-7.34-11.94-15.12-12.45C80,126,79,125,79,123.38s1.22-2.56,3-2.53a20.54,20.54,0,0,1,12.7,4.61c.86.69,1.66,1.45,2.6,2.28,0-.43,0-.64,0-.86q0-24.16,0-48.35c0-3.4-1.84-5.34-5.34-5.79A2.6,2.6,0,0,1,89.53,70a2.51,2.51,0,0,1,2.84-2.43A50,50,0,0,1,97.4,68.51Z"/><path class="cls-1" d="M124.22,93.57c.9,3.12,3.49,5.09,7.18,5.43a2.83,2.83,0,0,1,2.6,1.67,2.64,2.64,0,0,1-2.66,3.61,13.14,13.14,0,0,1-12.27-9.19,2.05,2.05,0,0,0-1.84-1.78,16.81,16.81,0,0,1-8-3.89c-1.42-1.17-1.68-2.64-.72-3.9a2.63,2.63,0,0,1,3.85-.33,15.16,15.16,0,0,0,7.61,3.2,13.34,13.34,0,0,0,12.24-6.12,14.84,14.84,0,0,0,2-6.7c.11-1.8,1.19-2.89,2.77-2.82s2.47,1.23,2.49,3c.08,8-5.93,15.57-13.85,17.51Z"/><path class="cls-1" d="M118.38,149.72c.2-9.59,8.77-18.36,18-18.36,1.84,0,3,1,3.07,2.52s-1,2.61-2.85,2.74c-7.16.54-12.32,6.06-12.91,13.8a2.68,2.68,0,0,1-2.2,2.72,2.61,2.61,0,0,1-2.9-1.74A10.15,10.15,0,0,1,118.38,149.72Z"/><path class="cls-1" d="M117.8,110.38c7.47.58,14,4.43,18.43,11.64a2.66,2.66,0,0,1-.72,3.8,2.56,2.56,0,0,1-3.65-.86,22.08,22.08,0,0,0-5.57-6,19.27,19.27,0,0,0-9.8-3.3c-2.32-.18-3.41-1.16-3.3-2.85S114.52,110.28,117.8,110.38Z"/><path class="cls-1" d="M115.79,53.57a2.62,2.62,0,1,1-2.54-2.63A2.62,2.62,0,0,1,115.79,53.57Z"/><path class="cls-1" d="M75.89,93.56a18.75,18.75,0,0,1-9.42-4.71A17.9,17.9,0,0,1,60.61,75.7a2.63,2.63,0,0,1,2.5-3,2.6,2.6,0,0,1,2.74,2.71c.4,6,3.29,10.24,9,12.26a12.38,12.38,0,0,0,12-1.92,7.75,7.75,0,0,1,1.88-1.17,2.61,2.61,0,0,1,2.47,4.46,16.32,16.32,0,0,1-7.8,4.09,2.85,2.85,0,0,0-2.62,2.29,13,13,0,0,1-12,8.81,2.67,2.67,0,0,1-3-2.48c-.07-1.54,1-2.6,2.69-2.78C72.31,98.63,74.67,96.92,75.89,93.56Z"/><path class="cls-1" d="M81.89,149.72c-.14,1.39-.47,2.52-1.74,3.17a2.14,2.14,0,0,1-2.68-.29,4.55,4.55,0,0,1-1.08-2.38c-.52-5.45-3-9.68-7.87-12.2a17.66,17.66,0,0,0-5.14-1.37c-1.72-.28-2.8-1.19-2.77-2.71s1.19-2.57,3-2.58c7,0,14.12,5.13,16.67,12.19C81,145.54,81.37,147.66,81.89,149.72Z"/><path class="cls-1" d="M86.88,113a2.6,2.6,0,0,1-2.59,2.6,20.7,20.7,0,0,0-8.45,2.1A18.27,18.27,0,0,0,69,123.83c-.29.44-.57.88-.9,1.29a2.6,2.6,0,0,1-3.6.66,2.56,2.56,0,0,1-.74-3.58,29.83,29.83,0,0,1,3.37-4.5,23.14,23.14,0,0,1,16.82-7.36A2.63,2.63,0,0,1,86.88,113Z"/><path class="cls-1" d="M89.5,53.55A2.62,2.62,0,1,1,87,50.94,2.61,2.61,0,0,1,89.5,53.55Z"/></svg>