<svg id="Calque_1" data-name="Calque 1" xmlns="http://www.w3.org/2000/svg" viewBox="0 0 200 200"><defs><style>.cls-1{fill:#70c7da;}</style></defs><path class="cls-1" d="M172.36,75.7l-4.13,2.83c.55,3.32,1.12,6.88,1.74,10.44.42,2.4-.11,3.34-2.46,3.86-6.36,1.44-12.73,2.84-19.1,4.25a2.39,2.39,0,0,1-3.17-1.77c-.38-1.09-.72-2.19-1.07-3.29-3.13,3.63-3.82,7.88-4.08,12.37-.36,6.25-1,12.47-1.56,18.71q-.75,8.85-1.51,17.72c-.27,3.18-.57,6.37-.82,9.56a2.46,2.46,0,0,1-1.93,2.15l-20.74,7.66c-4.09,1.52-8.17,3.08-12.29,4.52a3.85,3.85,0,0,1-2.42,0c-11-4-22-8.12-33-12.18a2.71,2.71,0,0,1-2-2.54c-.6-7.6-1.27-15.19-1.93-22.78-.71-8.2-1.45-16.4-2.16-24.61a23.76,23.76,0,0,1-.14-2.39c0-3.23-2.2-5.49-3.57-8.56-.47,1.4-.81,2.45-1.16,3.49C54.2,97,53.3,97.45,51.47,97L32.77,92.9c-2.62-.58-3.17-1.44-2.71-4.07.62-3.5,1.17-7,1.76-10.6-.8-.36-1.53-.67-2.25-1-2.13-1-2.51-2.38-1.09-4.23,2.85-3.7,5.72-7.36,8.58-11,.2-.26.39-.53.64-.87l-2.14-2.43c-1.74-2-1.54-3.26.71-4.65,9-5.57,18.12-11.11,27.14-16.74a7.58,7.58,0,0,1,4.21-1.18q32.43.06,64.86,0a7.39,7.39,0,0,1,4.08,1.17q13.47,8.39,27,16.66c2.5,1.55,2.67,2.71.71,4.92l-2,2.28L172.36,74ZM70.26,40.65c.36.63.6,1.06.87,1.49L79,54.7c1.14,1.83.86,3-1,4.07S74.22,61,72.34,62.18a6.68,6.68,0,0,0-1.52,1.22Q66.35,68.52,62,73.67a4.75,4.75,0,0,0-.89,1.56q-1.53,4.76-3,9.55a1.93,1.93,0,0,0,0,1.32c1.4,2.65,2.87,5.28,4.34,8l1.06-.54Q80.9,84.33,98.27,75.11a3.26,3.26,0,0,1,3.43,0c3.67,2,7.38,3.93,11.08,5.89l24.75,13.09a27.69,27.69,0,0,1,2.15-3.83c2.43-3.09,2.27-6.15,1-9.78a30.06,30.06,0,0,0-6.17-11c-3.56-4-6.92-8.06-11.92-10.33a4.59,4.59,0,0,1-.61-.35c-1.88-1.09-2.17-2.23-1-4l7.93-12.68c.26-.42.5-.84.83-1.41-1.85,0-3.45-.09-5,0a4.38,4.38,0,0,0-2.26.81c-5.44,4.27-10.7,8.79-16.29,12.85-3,2.19-4.64,4.54-3.91,8.26a1.55,1.55,0,0,1,0,.43,2.26,2.26,0,1,1-4.51.05c0-1.37-.07-2.74,0-4.1a2.43,2.43,0,0,0-1.06-2.26C90.22,51.59,83.76,46.4,77.27,41.24a2.09,2.09,0,0,0-1.08-.56C74.28,40.62,72.37,40.65,70.26,40.65Zm50.07,74.12c-.43.12-.7.18-1,.27-6,2.23-12,4.49-18,6.64a4.6,4.6,0,0,1-2.82,0c-3.6-1.23-7.14-2.61-10.7-3.93l-8.2-3.05v17.72c6.58,2.43,13.13,4.88,19.7,7.26a2.54,2.54,0,0,0,1.6-.12c3.27-1.18,6.51-2.41,9.77-3.61l9.56-3.55Zm0-22.64c-.45.13-.76.21-1.06.32-5.94,2.21-11.86,4.47-17.82,6.59a5,5,0,0,1-3,0c-2.42-.75-4.76-1.74-7.13-2.62L79.65,92.09c0,5.79,0,11.43,0,17.06,0,.34.52.83.9,1q9.22,3.48,18.49,6.85a2.52,2.52,0,0,0,1.6.08q9.45-3.43,18.87-7a1.59,1.59,0,0,0,.77-1.2c.09-1.74,0-3.48,0-5.22ZM79.7,137.33v15.44l19.12,7.12a1.77,1.77,0,0,0,.66.22,6.46,6.46,0,0,0,1.76-.26q7.28-2.65,14.52-5.37c1.5-.56,3.58-.74,4.31-1.82s.27-3.16.28-4.8c0-3.47,0-6.93,0-10.47-.42.11-.69.16-1,.25-6,2.23-12,4.5-18,6.65a4.68,4.68,0,0,1-2.82,0c-2.86-.92-5.65-2-8.46-3.09ZM75,151V92.64c-3.54,1.87-7,3.64-10.32,5.5a1.65,1.65,0,0,0-.59,1.34c.37,5.07.79,10.13,1.22,15.19.52,6.14,1.07,12.28,1.59,18.42.41,4.78.79,9.56,1.21,14.34,0,.42.23,1.06.52,1.18C70.72,149.47,72.83,150.22,75,151Zm49.89,0c2.06-.76,3.92-1.5,5.83-2.12a1.51,1.51,0,0,0,1.15-1.52q.59-7.18,1.2-14.35c.52-6.14,1.06-12.28,1.58-18.42.43-5,.81-9.94,1.28-14.9a1.72,1.72,0,0,0-1.14-1.94c-2.93-1.49-5.83-3.06-8.74-4.59-.35-.19-.73-.32-1.16-.5Zm.91-95.36c7.47,4.48,14.77,8.84,22,13.24.76.46,1.09.1,1.52-.38,2.66-3,5.34-6,8-8.94L159.77,57l-25.1-15.43C131.68,46.32,128.8,50.94,125.82,55.7ZM65.33,41.52,40.27,56.94c.24.3.39.53.57.73,3.21,3.57,6.44,7.13,9.61,10.73a1.35,1.35,0,0,0,2.09.32c6.83-4.16,13.7-8.25,20.55-12.37.34-.2.65-.46,1-.73Zm51.54,46.94c-.37-.26-.51-.37-.66-.46-5.15-2.72-10.28-5.46-15.45-8.14a2.08,2.08,0,0,0-1.64.06C94.07,82.53,89.06,85.2,84,87.86a8.61,8.61,0,0,0-.87.62c5.57,2.07,10.92,4.06,16.28,6a1.7,1.7,0,0,0,1.09,0C105.9,92.55,111.25,90.55,116.87,88.46ZM116,40.76H84l16,12.76Zm43.28,23.92a1.52,1.52,0,0,0-.36.2l-7.2,8c-2,2.18-2.45,2.25-5,.71L142,70.76c2.5,3.28,5.13,6.35,7.81,9.38a1.49,1.49,0,0,0,1.23.47c5.13-2.17,10.25-4.41,15.45-6.67ZM33.55,73.93c5.24,2.28,10.39,4.54,15.55,6.75a.9.9,0,0,0,.84-.21Q54.1,75.73,58.2,71a57,57,0,0,0-5.56,3c-1.65,1-2.53.83-3.83-.6Q45.72,70,42.67,66.56c-.59-.65-1.18-1.29-1.83-2Zm1.21,14.69L50.94,92.2l2.66-8.58c-1.88,3.23-4.28,2.31-6.87,1.09-3.43-1.61-6.94-3-10.54-4.61Zm130.47,0-1.4-8.45c-.48.17-.83.29-1.16.44l-11.22,4.87c-1.85.8-2.59.62-4-.89-.3-.34-.62-.68-1.21-1.31l2.79,8.94Z"/></svg>